<svg width="72" height="58" viewBox="0 0 72 58" fill="none" xmlns="http://www.w3.org/2000/svg">
<path d="M68.4443 52.1285C68.1803 52.4992 67.8319 52.8018 67.4279 53.0113C67.0238 53.2208 66.5758 53.3312 66.1206 53.3333H5.87832C5.4232 53.3312 4.97512 53.2208 4.57108 53.0113C4.16704 52.8018 3.81865 52.4992 3.55469 52.1285C14.886 26.9271 12.5337 32.1624 15.9187 24.6465H56.0803C59.7235 32.7505 57.0269 26.7693 68.4443 52.1285Z" fill="url(#paint0_linear_2356_71786)"/>
<path d="M15.919 6V24.6464C12.2758 32.7505 14.9723 26.7693 3.55496 52.1284C3.19522 51.6488 3.00365 51.064 3.00991 50.4646V30.3838L15.919 6Z" fill="url(#paint1_linear_2356_71786)"/>
<path d="M68.9891 30.3838V50.4646C68.9954 51.064 68.8038 51.6488 68.4441 52.1284C57.1128 26.927 59.4651 32.1624 56.0801 24.6464V6L68.9891 30.3838Z" fill="url(#paint2_linear_2356_71786)"/>
<path d="M68.9895 30.3839V50.4647C68.9895 51.2255 68.6872 51.9551 68.1492 52.4931C67.6113 53.0311 66.8816 53.3333 66.1208 53.3333H5.87845C5.11763 53.3333 4.38797 53.0311 3.84998 52.4931C3.312 51.9551 3.00977 51.2255 3.00977 50.4647V30.3839H27.5227C27.8686 30.38 28.2042 30.5012 28.4678 30.7252C28.7314 30.9493 28.9051 31.261 28.957 31.6031C29.1782 32.9008 29.7522 34.1126 30.6164 35.1058C31.4805 36.0989 32.6013 36.835 33.8559 37.2335C35.1106 37.632 36.4508 37.6774 37.7296 37.3649C39.0084 37.0523 40.1765 36.3938 41.1059 35.4614C42.1487 34.409 42.8444 33.0626 43.0996 31.6031C43.1515 31.261 43.3252 30.9493 43.5888 30.7252C43.8524 30.5012 44.188 30.38 44.5339 30.3839H68.9895Z" fill="url(#paint3_linear_2356_71786)"/>
<path d="M15.9189 6H56.0805V24.6464H15.9189V6Z" fill="url(#paint4_linear_2356_71786)"/>
<path d="M17.3529 40.4242H8.74684C7.95468 40.4242 7.3125 41.0664 7.3125 41.8585V47.5959C7.3125 48.3881 7.95468 49.0302 8.74684 49.0302H17.3529C18.1451 49.0302 18.7872 48.3881 18.7872 47.5959V41.8585C18.7872 41.0664 18.1451 40.4242 17.3529 40.4242Z" fill="#CED0D4"/>
<path d="M25.9593 49.0303H23.0906C22.7102 49.0303 22.3454 48.8792 22.0764 48.6102C21.8074 48.3412 21.6562 47.9764 21.6562 47.596C21.6562 47.2156 21.8074 46.8507 22.0764 46.5817C22.3454 46.3127 22.7102 46.1616 23.0906 46.1616H25.9593C26.3397 46.1616 26.7045 46.3127 26.9735 46.5817C27.2425 46.8507 27.3936 47.2156 27.3936 47.596C27.3936 47.9764 27.2425 48.3412 26.9735 48.6102C26.7045 48.8792 26.3397 49.0303 25.9593 49.0303Z" fill="#CED0D4"/>
<path d="M28.828 43.2929H23.0906C22.7102 43.2929 22.3454 43.1418 22.0764 42.8728C21.8074 42.6038 21.6562 42.2389 21.6562 41.8585C21.6562 41.4781 21.8074 41.1133 22.0764 40.8443C22.3454 40.5753 22.7102 40.4242 23.0906 40.4242H28.828C29.2084 40.4242 29.5732 40.5753 29.8422 40.8443C30.1112 41.1133 30.2623 41.4781 30.2623 41.8585C30.2623 42.2389 30.1112 42.6038 29.8422 42.8728C29.5732 43.1418 29.2084 43.2929 28.828 43.2929Z" fill="#CED0D4"/>
<defs>
<linearGradient id="paint0_linear_2356_71786" x1="44.6056" y1="52.6161" x2="44.6056" y2="24.6465" gradientUnits="userSpaceOnUse">
<stop stop-color="#D5D7DA"/>
<stop offset="1" stop-color="#CACCD2"/>
</linearGradient>
<linearGradient id="paint1_linear_2356_71786" x1="3.45933" y1="51.5824" x2="-3.95252" y2="10.6639" gradientUnits="userSpaceOnUse">
<stop stop-color="#D5D7DA"/>
<stop offset="1" stop-color="#F5F5F5"/>
</linearGradient>
<linearGradient id="paint2_linear_2356_71786" x1="67.7341" y1="48.8509" x2="56.9765" y2="16.0403" gradientUnits="userSpaceOnUse">
<stop stop-color="#D5D7DA"/>
<stop offset="1" stop-color="#F5F5F5"/>
</linearGradient>
<linearGradient id="paint3_linear_2356_71786" x1="5.30751" y1="53.0617" x2="4.9369" y2="32.0427" gradientUnits="userSpaceOnUse">
<stop stop-color="#D5D7DA"/>
<stop offset="1" stop-color="#F5F5F5"/>
</linearGradient>
<linearGradient id="paint4_linear_2356_71786" x1="36.5376" y1="24.6463" x2="36.5376" y2="6.35849" gradientUnits="userSpaceOnUse">
<stop stop-color="#D5D7DA"/>
<stop offset="1" stop-color="#F5F5F5"/>
</linearGradient>
</defs>
</svg>
